# xmcd CD database file
#
# Track frame offsets:
#	150
#	26402
#	46902
#	64647
#	97342
#	122762
#	142947
#	169037
#	190945
#	202267
#	220477
#	244245
#
# Disc length: 3455 seconds
#
# Revision: 5
# Processed by: cddbd v1.5.2PL0 Copyright (c) Steve Scherf et al.
# Submitted via: CDex 1.51
#
DISCID=b40d7d0c
DTITLE=Zucchero Fornaciari - Zucchero
DYEAR=1991
DGENRE=Italian
TTITLE0=Diamante
TTITLE1=Wonderful world
TTITLE2=Il mare
TTITLE3=Mama
TTITLE4=Dunes of mercy
TTITLE5=Senza una donna (feat Paul Young)
TTITLE6=You're losing me
TTITLE7=Solo una sana
TTITLE8=You've chosen me
TTITLE9=Diavolo in me
TTITLE10=Overdose (d'amore)
TTITLE11=Nice (Nietzsche) che dice
EXTD=YEAR: 1991
EXTT0=
EXTT1=featuring Eric Clapton
EXTT2=
EXTT3=
EXTT4=
EXTT5=Without a woman, featuring Paul Young
EXTT6=
EXTT7=
EXTT8=
EXTT9=
EXTT10=
EXTT11=
PLAYORDER=
